<svg xmlns="http://www.w3.org/2000/svg" data-name="Layer 1" viewBox="0 0 24 30" x="0px" y="0px"><title>ff</title><path d="M19.838,6.261l-4.1-4.1A2.582,2.582,0,0,0,13.9,1.4H7A3.6,3.6,0,0,0,3.4,5V19A3.6,3.6,0,0,0,7,22.6H17A3.6,3.6,0,0,0,20.6,19V8.1A2.582,2.582,0,0,0,19.838,6.261ZM19.4,19A2.4,2.4,0,0,1,17,21.4H7A2.4,2.4,0,0,1,4.6,19V5A2.4,2.4,0,0,1,7,2.6h6.9a1.411,1.411,0,0,1,.99.41l4.1,4.1a1.411,1.411,0,0,1,.41.99ZM7.972,9.223l-.478-.6L9,7.424H9.82v4.689H8.828l.026-3.647q-.247.247-.343.324ZM14.435,7.35a1.391,1.391,0,0,0-1.235.589,3.3,3.3,0,0,0-.4,1.83,3.222,3.222,0,0,0,.412,1.8,1.381,1.381,0,0,0,1.224.609,1.4,1.4,0,0,0,1.24-.59,3.268,3.268,0,0,0,.4-1.819,3.228,3.228,0,0,0-.415-1.8A1.384,1.384,0,0,0,14.435,7.35Zm.5,3.65a.522.522,0,0,1-.5.378.516.516,0,0,1-.5-.374,3.648,3.648,0,0,1-.149-1.236,3.641,3.641,0,0,1,.151-1.24.52.52,0,0,1,1,0,3.537,3.537,0,0,1,.156,1.24A3.548,3.548,0,0,1,14.935,11Zm.02,2.727h.815v4.689h-.991L14.8,14.77q-.247.247-.343.324l-.539.433-.478-.6Zm-5.518,0a1.391,1.391,0,0,0-1.235.589,3.3,3.3,0,0,0-.4,1.83,3.222,3.222,0,0,0,.412,1.8,1.381,1.381,0,0,0,1.224.609,1.4,1.4,0,0,0,1.24-.59,3.268,3.268,0,0,0,.4-1.819,3.228,3.228,0,0,0-.415-1.8A1.384,1.384,0,0,0,9.437,13.725Zm.5,3.65a.522.522,0,0,1-.5.378.516.516,0,0,1-.5-.374,3.648,3.648,0,0,1-.149-1.236,3.641,3.641,0,0,1,.151-1.24.52.52,0,0,1,1,0,3.537,3.537,0,0,1,.156,1.24A3.547,3.547,0,0,1,9.938,17.375Z"/><text x="0" y="39" fill="#000000" font-size="5px" font-weight="bold" font-family="'Helvetica Neue', Helvetica, Arial-Unicode, Arial, Sans-serif">Created by Hare Krishna</text><text x="0" y="44" fill="#000000" font-size="5px" font-weight="bold" font-family="'Helvetica Neue', Helvetica, Arial-Unicode, Arial, Sans-serif">from the Noun Project</text></svg>